<svg id="visual" viewBox="0 0 900 600" width="900" height="600" xmlns="http://www.w3.org/2000/svg" xmlns:xlink="http://www.w3.org/1999/xlink" version="1.1"><g stroke-width="1" stroke-linejoin="bevel"><path d="M395 308L312 256L339 429Z" fill="#121212" stroke="#121212"></path><path d="M395 308L311 184L312 256Z" fill="#0d0d0d" stroke="#0d0d0d"></path><path d="M93 268L173 425L312 256Z" fill="#090909" stroke="#090909"></path><path d="M312 256L173 425L339 429Z" fill="#0a0a0a" stroke="#0a0a0a"></path><path d="M271 600L430 461L339 429Z" fill="#0d0d0d" stroke="#0d0d0d"></path><path d="M339 429L430 461L395 308Z" fill="#101010" stroke="#101010"></path><path d="M206 122L93 268L312 256Z" fill="#111111" stroke="#111111"></path><path d="M311 184L206 122L312 256Z" fill="#0d0d0d" stroke="#0d0d0d"></path><path d="M430 461L558 269L395 308Z" fill="#131313" stroke="#131313"></path><path d="M395 308L426 99L311 184Z" fill="#0c0c0c" stroke="#0c0c0c"></path><path d="M311 184L330 0L206 122Z" fill="#131313" stroke="#131313"></path><path d="M173 425L271 600L339 429Z" fill="#070707" stroke="#070707"></path><path d="M558 269L426 99L395 308Z" fill="#0c0c0c" stroke="#0c0c0c"></path><path d="M173 425L206 600L271 600Z" fill="#121212" stroke="#121212"></path><path d="M0 600L206 600L173 425Z" fill="#060606" stroke="#060606"></path><path d="M271 600L456 600L430 461Z" fill="#0c0c0c" stroke="#0c0c0c"></path><path d="M430 461L611 457L558 269Z" fill="#090909" stroke="#090909"></path><path d="M0 179L0 352L93 268Z" fill="#121212" stroke="#121212"></path><path d="M93 268L0 352L173 425Z" fill="#090909" stroke="#090909"></path><path d="M576 600L611 457L430 461Z" fill="#111111" stroke="#111111"></path><path d="M0 352L0 417L173 425Z" fill="#0c0c0c" stroke="#0c0c0c"></path><path d="M426 99L330 0L311 184Z" fill="#0a0a0a" stroke="#0a0a0a"></path><path d="M0 0L0 179L206 122Z" fill="#0d0d0d" stroke="#0d0d0d"></path><path d="M206 122L0 179L93 268Z" fill="#101010" stroke="#101010"></path><path d="M456 600L576 600L430 461Z" fill="#070707" stroke="#070707"></path><path d="M330 0L181 0L206 122Z" fill="#070707" stroke="#070707"></path><path d="M426 99L457 0L330 0Z" fill="#070707" stroke="#070707"></path><path d="M630 0L457 0L426 99Z" fill="#111111" stroke="#111111"></path><path d="M776 249L656 179L558 269Z" fill="#0e0e0e" stroke="#0e0e0e"></path><path d="M558 269L656 179L426 99Z" fill="#0c0c0c" stroke="#0c0c0c"></path><path d="M771 600L695 424L611 457Z" fill="#0c0c0c" stroke="#0c0c0c"></path><path d="M611 457L695 424L558 269Z" fill="#111111" stroke="#111111"></path><path d="M0 417L0 600L173 425Z" fill="#101010" stroke="#101010"></path><path d="M181 0L0 0L206 122Z" fill="#121212" stroke="#121212"></path><path d="M762 116L630 0L656 179Z" fill="#101010" stroke="#101010"></path><path d="M656 179L630 0L426 99Z" fill="#0a0a0a" stroke="#0a0a0a"></path><path d="M695 424L776 249L558 269Z" fill="#121212" stroke="#121212"></path><path d="M776 249L762 116L656 179Z" fill="#070707" stroke="#070707"></path><path d="M576 600L771 600L611 457Z" fill="#101010" stroke="#101010"></path><path d="M695 424L900 353L776 249Z" fill="#121212" stroke="#121212"></path><path d="M900 474L900 353L695 424Z" fill="#0a0a0a" stroke="#0a0a0a"></path><path d="M776 249L900 169L762 116Z" fill="#101010" stroke="#101010"></path><path d="M900 0L790 0L762 116Z" fill="#0c0c0c" stroke="#0c0c0c"></path><path d="M762 116L790 0L630 0Z" fill="#101010" stroke="#101010"></path><path d="M771 600L900 474L695 424Z" fill="#0a0a0a" stroke="#0a0a0a"></path><path d="M900 353L900 169L776 249Z" fill="#0a0a0a" stroke="#0a0a0a"></path><path d="M771 600L900 600L900 474Z" fill="#101010" stroke="#101010"></path><path d="M900 169L900 0L762 116Z" fill="#0e0e0e" stroke="#0e0e0e"></path></g></svg>